<mxfile host="app.diagrams.net" agent="Mozilla/5.0 (Windows NT 10.0; Win64; x64) AppleWebKit/537.36 (KHTML, like Gecko) Chrome/127.0.0.0 Safari/537.36" version="24.7.6">
  <diagram id="FoJYp8SGHwV1sO22x01K" name="Page-1">
    <mxGraphModel dx="1195" dy="1779" grid="1" gridSize="10" guides="1" tooltips="1" connect="1" arrows="1" fold="1" page="1" pageScale="1" pageWidth="827" pageHeight="1169" math="0" shadow="0">
      <root>
        <mxCell id="0" />
        <mxCell id="1" parent="0" />
        <mxCell id="kmjTzo5uZDzs071amDgh-1" value="MochiKernel" style="rounded=0;whiteSpace=wrap;html=1;verticalAlign=top;" parent="1" vertex="1">
          <mxGeometry x="60" y="-880" width="699" height="430" as="geometry" />
        </mxCell>
        <mxCell id="kmjTzo5uZDzs071amDgh-2" value="メモリ管理" style="rounded=0;whiteSpace=wrap;html=1;verticalAlign=bottom;fontStyle=1;fillColor=#f5f5f5;strokeColor=#666666;fontColor=#333333;" parent="1" vertex="1">
          <mxGeometry x="80" y="-745" width="659" height="235" as="geometry" />
        </mxCell>
        <mxCell id="tTIGoOZrCqbYwV9Eb-xu-4" value="ヒープ領域割当&lt;br&gt;ヒープ領域解放" style="edgeStyle=orthogonalEdgeStyle;rounded=0;orthogonalLoop=1;jettySize=auto;html=1;entryX=0.5;entryY=0;entryDx=0;entryDy=0;align=left;verticalAlign=middle;" parent="1" target="cX-9GvAJ7uHmKu8T5V0Z-7" edge="1">
          <mxGeometry x="-0.5138" relative="1" as="geometry">
            <mxPoint x="506.51428571428573" y="-830" as="sourcePoint" />
            <Array as="points">
              <mxPoint x="504" y="-830" />
            </Array>
            <mxPoint as="offset" />
          </mxGeometry>
        </mxCell>
        <mxCell id="tTIGoOZrCqbYwV9Eb-xu-5" value="仮想メモリ領域管理開始&lt;br&gt;仮想メモリ領域管理終了" style="edgeStyle=orthogonalEdgeStyle;rounded=0;orthogonalLoop=1;jettySize=auto;html=1;align=left;verticalAlign=middle;exitX=0.25;exitY=1;exitDx=0;exitDy=0;entryX=0.75;entryY=0;entryDx=0;entryDy=0;" parent="1" source="tTIGoOZrCqbYwV9Eb-xu-20" target="cX-9GvAJ7uHmKu8T5V0Z-6" edge="1">
          <mxGeometry x="-0.2235" relative="1" as="geometry">
            <mxPoint x="292" y="-740" as="targetPoint" />
            <Array as="points">
              <mxPoint x="292" y="-830" />
              <mxPoint x="292" y="-740" />
            </Array>
            <mxPoint as="offset" />
          </mxGeometry>
        </mxCell>
        <mxCell id="tTIGoOZrCqbYwV9Eb-xu-6" value="仮想-&amp;gt;物理メモリコピー&lt;br&gt;物理メモリ設定" style="edgeStyle=orthogonalEdgeStyle;rounded=0;orthogonalLoop=1;jettySize=auto;html=1;align=right;verticalAlign=middle;textOpacity=80;entryX=0.5;entryY=0;entryDx=0;entryDy=0;labelBackgroundColor=none;" parent="1" target="cX-9GvAJ7uHmKu8T5V0Z-5" edge="1">
          <mxGeometry x="0.368" relative="1" as="geometry">
            <mxPoint x="664" y="-830" as="sourcePoint" />
            <Array as="points">
              <mxPoint x="659" y="-830" />
            </Array>
            <mxPoint as="offset" />
          </mxGeometry>
        </mxCell>
        <mxCell id="tTIGoOZrCqbYwV9Eb-xu-7" value="&lt;span style=&quot;color: rgb(0 , 0 , 0) ; font-family: &amp;#34;helvetica&amp;#34; ; font-size: 11px ; font-style: normal ; font-weight: 400 ; letter-spacing: normal ; text-align: left ; text-indent: 0px ; text-transform: none ; word-spacing: 0px ; background-color: rgb(255 , 255 , 255) ; display: inline ; float: none&quot;&gt;I/Oメモリ領域割当&lt;/span&gt;&lt;br style=&quot;color: rgb(0 , 0 , 0) ; font-family: &amp;#34;helvetica&amp;#34; ; font-size: 11px ; font-style: normal ; font-weight: 400 ; letter-spacing: normal ; text-align: left ; text-indent: 0px ; text-transform: none ; word-spacing: 0px&quot;&gt;&lt;span style=&quot;color: rgb(0 , 0 , 0) ; font-family: &amp;#34;helvetica&amp;#34; ; font-size: 11px ; font-style: normal ; font-weight: 400 ; letter-spacing: normal ; text-align: left ; text-indent: 0px ; text-transform: none ; word-spacing: 0px ; background-color: rgb(255 , 255 , 255) ; display: inline ; float: none&quot;&gt;I/Oメモリ領域解放&lt;/span&gt;" style="edgeStyle=orthogonalEdgeStyle;rounded=0;orthogonalLoop=1;jettySize=auto;html=1;entryX=0.25;entryY=0;entryDx=0;entryDy=0;align=left;" parent="1" target="cX-9GvAJ7uHmKu8T5V0Z-8" edge="1">
          <mxGeometry x="-0.573" relative="1" as="geometry">
            <mxPoint x="119" y="-829" as="sourcePoint" />
            <Array as="points" />
            <mxPoint as="offset" />
          </mxGeometry>
        </mxCell>
        <mxCell id="tTIGoOZrCqbYwV9Eb-xu-17" value="ページ設定&lt;br&gt;ページ解除" style="edgeStyle=orthogonalEdgeStyle;rounded=0;orthogonalLoop=1;jettySize=auto;html=1;align=left;entryX=0.931;entryY=0;entryDx=0;entryDy=0;entryPerimeter=0;" parent="1" target="3-BPUUY52MVRkMOVyjyK-4" edge="1">
          <mxGeometry x="0.3296" y="-90" relative="1" as="geometry">
            <mxPoint x="697" y="-829" as="sourcePoint" />
            <mxPoint x="779" y="-700" as="targetPoint" />
            <Array as="points">
              <mxPoint x="697" y="-710" />
              <mxPoint x="697" y="-710" />
            </Array>
            <mxPoint x="90" y="-90" as="offset" />
          </mxGeometry>
        </mxCell>
        <mxCell id="kmjTzo5uZDzs071amDgh-3" value="各モジュール" style="rounded=0;whiteSpace=wrap;html=1;fontStyle=0" parent="1" vertex="1">
          <mxGeometry x="469" y="-850" width="260" height="20" as="geometry" />
        </mxCell>
        <mxCell id="bw8a6MI67Tezkrzro-4j-2" value="初期化制御" style="rounded=0;whiteSpace=wrap;html=1;" parent="1" vertex="1">
          <mxGeometry x="629.5" y="-490" width="70" height="20" as="geometry" />
        </mxCell>
        <mxCell id="cX-9GvAJ7uHmKu8T5V0Z-1" value="メイン" style="rounded=0;whiteSpace=wrap;html=1;" parent="1" vertex="1">
          <mxGeometry x="629.5" y="-560" width="70" height="30" as="geometry" />
        </mxCell>
        <mxCell id="tTIGoOZrCqbYwV9Eb-xu-14" value="&lt;span style=&quot;color: rgb(0, 0, 0); font-size: 11px; font-style: normal; font-weight: 400; letter-spacing: normal; text-align: left; text-indent: 0px; text-transform: none; word-spacing: 0px; font-family: helvetica; display: inline; float: none;&quot;&gt;メモリ領域設定&lt;/span&gt;&lt;br style=&quot;color: rgb(0 , 0 , 0) ; font-size: 11px ; font-style: normal ; font-weight: 400 ; letter-spacing: normal ; text-align: left ; text-indent: 0px ; text-transform: none ; word-spacing: 0px ; font-family: &amp;quot;helvetica&amp;quot;&quot;&gt;&lt;span style=&quot;color: rgb(0, 0, 0); font-size: 11px; font-style: normal; font-weight: 400; letter-spacing: normal; text-align: left; text-indent: 0px; text-transform: none; word-spacing: 0px; font-family: helvetica; display: inline; float: none;&quot;&gt;指定メモリ領域設定&lt;/span&gt;&lt;br style=&quot;color: rgb(0 , 0 , 0) ; font-size: 11px ; font-style: normal ; font-weight: 400 ; letter-spacing: normal ; text-align: left ; text-indent: 0px ; text-transform: none ; word-spacing: 0px ; font-family: &amp;quot;helvetica&amp;quot;&quot;&gt;&lt;span style=&quot;color: rgb(0, 0, 0); font-size: 11px; font-style: normal; font-weight: 400; letter-spacing: normal; text-align: left; text-indent: 0px; text-transform: none; word-spacing: 0px; font-family: helvetica; display: inline; float: none;&quot;&gt;メモリ領域解放&lt;/span&gt;" style="edgeStyle=orthogonalEdgeStyle;rounded=0;orthogonalLoop=1;jettySize=auto;html=1;entryX=0.5;entryY=1;entryDx=0;entryDy=0;align=left;labelBackgroundColor=none;" parent="1" source="cX-9GvAJ7uHmKu8T5V0Z-3" target="cX-9GvAJ7uHmKu8T5V0Z-10" edge="1">
          <mxGeometry x="-0.16" y="1" relative="1" as="geometry">
            <mxPoint as="offset" />
          </mxGeometry>
        </mxCell>
        <mxCell id="cX-9GvAJ7uHmKu8T5V0Z-3" value="物理メモリ領域管理" style="rounded=0;whiteSpace=wrap;html=1;" parent="1" vertex="1">
          <mxGeometry x="99" y="-560" width="221" height="30" as="geometry" />
        </mxCell>
        <mxCell id="tTIGoOZrCqbYwV9Eb-xu-9" value="&lt;span style=&quot;color: rgb(0, 0, 0); font-family: helvetica; font-size: 11px; font-style: normal; font-weight: 400; letter-spacing: normal; text-indent: 0px; text-transform: none; word-spacing: 0px; display: inline; float: none;&quot;&gt;ページディレクトリID取得&lt;/span&gt;&lt;br style=&quot;color: rgb(0, 0, 0); font-family: helvetica; font-size: 11px; font-style: normal; font-weight: 400; letter-spacing: normal; text-indent: 0px; text-transform: none; word-spacing: 0px;&quot;&gt;&lt;span style=&quot;color: rgb(0, 0, 0); font-family: helvetica; font-size: 11px; font-style: normal; font-weight: 400; letter-spacing: normal; text-indent: 0px; text-transform: none; word-spacing: 0px; display: inline; float: none;&quot;&gt;ページ設定&lt;/span&gt;&lt;br style=&quot;color: rgb(0, 0, 0); font-family: helvetica; font-size: 11px; font-style: normal; font-weight: 400; letter-spacing: normal; text-indent: 0px; text-transform: none; word-spacing: 0px;&quot;&gt;&lt;div style=&quot;color: rgb(0, 0, 0); font-family: helvetica; font-size: 11px; font-style: normal; font-weight: 400; letter-spacing: normal; text-indent: 0px; text-transform: none; word-spacing: 0px;&quot;&gt;ページ解除&lt;/div&gt;" style="edgeStyle=orthogonalEdgeStyle;rounded=0;orthogonalLoop=1;jettySize=auto;html=1;align=right;textOpacity=80;exitX=0.5;exitY=1;exitDx=0;exitDy=0;entryX=0.814;entryY=0.011;entryDx=0;entryDy=0;entryPerimeter=0;labelBackgroundColor=none;" parent="1" source="cX-9GvAJ7uHmKu8T5V0Z-5" target="3-BPUUY52MVRkMOVyjyK-4" edge="1">
          <mxGeometry x="-0.0687" y="-1" relative="1" as="geometry">
            <mxPoint x="769" y="-650" as="targetPoint" />
            <Array as="points">
              <mxPoint x="659" y="-640" />
            </Array>
            <mxPoint as="offset" />
          </mxGeometry>
        </mxCell>
        <mxCell id="cX-9GvAJ7uHmKu8T5V0Z-5" value="メモリ&lt;br&gt;制御" style="rounded=0;whiteSpace=wrap;html=1;" parent="1" vertex="1">
          <mxGeometry x="629" y="-730" width="60" height="40" as="geometry" />
        </mxCell>
        <mxCell id="tTIGoOZrCqbYwV9Eb-xu-13" value="&lt;span style=&quot;color: rgb(0, 0, 0); font-family: helvetica; font-size: 11px; font-style: normal; font-weight: 400; letter-spacing: normal; text-align: left; text-indent: 0px; text-transform: none; word-spacing: 0px; display: inline; float: none;&quot;&gt;メモリ領域設定&lt;/span&gt;&lt;br style=&quot;color: rgb(0 , 0 , 0) ; font-family: &amp;quot;helvetica&amp;quot; ; font-size: 11px ; font-style: normal ; font-weight: 400 ; letter-spacing: normal ; text-align: left ; text-indent: 0px ; text-transform: none ; word-spacing: 0px&quot;&gt;&lt;span style=&quot;color: rgb(0, 0, 0); font-family: helvetica; font-size: 11px; font-style: normal; font-weight: 400; letter-spacing: normal; text-align: left; text-indent: 0px; text-transform: none; word-spacing: 0px; display: inline; float: none;&quot;&gt;指定メモリ領域設定&lt;/span&gt;&lt;br style=&quot;color: rgb(0 , 0 , 0) ; font-family: &amp;quot;helvetica&amp;quot; ; font-size: 11px ; font-style: normal ; font-weight: 400 ; letter-spacing: normal ; text-align: left ; text-indent: 0px ; text-transform: none ; word-spacing: 0px&quot;&gt;&lt;span style=&quot;color: rgb(0, 0, 0); font-family: helvetica; font-size: 11px; font-style: normal; font-weight: 400; letter-spacing: normal; text-align: left; text-indent: 0px; text-transform: none; word-spacing: 0px; display: inline; float: none;&quot;&gt;メモリ領域解放&lt;/span&gt;" style="edgeStyle=orthogonalEdgeStyle;rounded=0;orthogonalLoop=1;jettySize=auto;html=1;entryX=0.747;entryY=0.033;entryDx=0;entryDy=0;align=left;labelBackgroundColor=none;entryPerimeter=0;" parent="1" source="cX-9GvAJ7uHmKu8T5V0Z-6" target="cX-9GvAJ7uHmKu8T5V0Z-10" edge="1">
          <mxGeometry x="-0.0194" relative="1" as="geometry">
            <Array as="points">
              <mxPoint x="264" y="-665" />
              <mxPoint x="264" y="-665" />
            </Array>
            <mxPoint as="offset" />
          </mxGeometry>
        </mxCell>
        <mxCell id="cX-9GvAJ7uHmKu8T5V0Z-6" value="仮想メモリ&lt;br&gt;領域管理" style="rounded=0;whiteSpace=wrap;html=1;" parent="1" vertex="1">
          <mxGeometry x="209" y="-730" width="110" height="40" as="geometry" />
        </mxCell>
        <mxCell id="jAtvSdH1QEnc2vv4k6M3-2" value="物理メモリ設定" style="edgeStyle=orthogonalEdgeStyle;rounded=0;orthogonalLoop=1;jettySize=auto;html=1;entryX=0;entryY=0.5;entryDx=0;entryDy=0;align=center;verticalAlign=bottom;labelBackgroundColor=none;" parent="1" source="cX-9GvAJ7uHmKu8T5V0Z-7" target="cX-9GvAJ7uHmKu8T5V0Z-5" edge="1">
          <mxGeometry x="-0.0118" y="1" relative="1" as="geometry">
            <mxPoint as="offset" />
          </mxGeometry>
        </mxCell>
        <mxCell id="tTIGoOZrCqbYwV9Eb-xu-8" value="&lt;font face=&quot;helvetica&quot;&gt;ページ設定&lt;/font&gt;&lt;div&gt;&lt;font face=&quot;helvetica&quot;&gt;ページ解除&lt;/font&gt;&lt;/div&gt;" style="edgeStyle=orthogonalEdgeStyle;rounded=0;orthogonalLoop=1;jettySize=auto;html=1;align=right;exitX=0.5;exitY=1;exitDx=0;exitDy=0;entryX=0.328;entryY=-0.022;entryDx=0;entryDy=0;entryPerimeter=0;labelBackgroundColor=none;" parent="1" source="cX-9GvAJ7uHmKu8T5V0Z-7" target="3-BPUUY52MVRkMOVyjyK-4" edge="1">
          <mxGeometry x="-0.1893" relative="1" as="geometry">
            <mxPoint x="506.51428571428573" y="-640" as="targetPoint" />
            <Array as="points">
              <mxPoint x="504" y="-670" />
              <mxPoint x="504" y="-670" />
            </Array>
            <mxPoint as="offset" />
          </mxGeometry>
        </mxCell>
        <mxCell id="cX-9GvAJ7uHmKu8T5V0Z-7" value="ヒープ&lt;br&gt;管理" style="rounded=0;whiteSpace=wrap;html=1;" parent="1" vertex="1">
          <mxGeometry x="469" y="-730" width="70" height="40" as="geometry" />
        </mxCell>
        <mxCell id="tTIGoOZrCqbYwV9Eb-xu-12" value="メモリ領域設定&lt;br&gt;指定メモリ領域設定&lt;br&gt;メモリ領域解放" style="edgeStyle=orthogonalEdgeStyle;rounded=0;orthogonalLoop=1;jettySize=auto;html=1;align=left;labelBackgroundColor=none;" parent="1" source="cX-9GvAJ7uHmKu8T5V0Z-8" edge="1">
          <mxGeometry x="-0.0782" relative="1" as="geometry">
            <mxPoint x="139" y="-640" as="targetPoint" />
            <Array as="points">
              <mxPoint x="139" y="-640" />
            </Array>
            <mxPoint as="offset" />
          </mxGeometry>
        </mxCell>
        <mxCell id="cX-9GvAJ7uHmKu8T5V0Z-8" value="I/Oメモリ&lt;br&gt;領域管理" style="rounded=0;whiteSpace=wrap;html=1;" parent="1" vertex="1">
          <mxGeometry x="99" y="-730" width="80" height="40" as="geometry" />
        </mxCell>
        <mxCell id="cX-9GvAJ7uHmKu8T5V0Z-9" value="セグメンテーション管理" style="rounded=0;whiteSpace=wrap;html=1;" parent="1" vertex="1">
          <mxGeometry x="464" y="-560" width="146" height="30" as="geometry" />
        </mxCell>
        <mxCell id="cX-9GvAJ7uHmKu8T5V0Z-10" value="メモリ領域管理" style="rounded=0;whiteSpace=wrap;html=1;" parent="1" vertex="1">
          <mxGeometry x="99" y="-640" width="221" height="30" as="geometry" />
        </mxCell>
        <mxCell id="3-BPUUY52MVRkMOVyjyK-3" value="初期化" style="endArrow=classic;html=1;align=left;entryX=0.5;entryY=1;entryDx=0;entryDy=0;exitX=0.5;exitY=0;exitDx=0;exitDy=0;verticalAlign=middle;labelBackgroundColor=none;" parent="1" source="bw8a6MI67Tezkrzro-4j-2" target="cX-9GvAJ7uHmKu8T5V0Z-1" edge="1">
          <mxGeometry x="-0.5" width="50" height="50" relative="1" as="geometry">
            <mxPoint x="719" y="-495" as="sourcePoint" />
            <mxPoint x="769" y="-545" as="targetPoint" />
            <mxPoint as="offset" />
          </mxGeometry>
        </mxCell>
        <mxCell id="tTIGoOZrCqbYwV9Eb-xu-10" value="&lt;span style=&quot;color: rgb(0, 0, 0); font-family: helvetica; font-size: 11px; font-style: normal; font-weight: 400; letter-spacing: normal; text-indent: 0px; text-transform: none; word-spacing: 0px; display: inline; float: none;&quot;&gt;マップ情報取得&lt;/span&gt;&lt;br style=&quot;color: rgb(0, 0, 0); font-family: helvetica; font-size: 11px; font-style: normal; font-weight: 400; letter-spacing: normal; text-indent: 0px; text-transform: none; word-spacing: 0px;&quot;&gt;&lt;span style=&quot;color: rgb(0, 0, 0); font-family: helvetica; font-size: 11px; font-style: normal; font-weight: 400; letter-spacing: normal; text-indent: 0px; text-transform: none; word-spacing: 0px; display: inline; float: none;&quot;&gt;メモリ割当&lt;/span&gt;&lt;br style=&quot;color: rgb(0, 0, 0); font-family: helvetica; font-size: 11px; font-style: normal; font-weight: 400; letter-spacing: normal; text-indent: 0px; text-transform: none; word-spacing: 0px;&quot;&gt;&lt;span style=&quot;color: rgb(0, 0, 0); font-family: helvetica; font-size: 11px; font-style: normal; font-weight: 400; letter-spacing: normal; text-indent: 0px; text-transform: none; word-spacing: 0px; display: inline; float: none;&quot;&gt;メモリ解放&lt;/span&gt;" style="edgeStyle=orthogonalEdgeStyle;rounded=0;orthogonalLoop=1;jettySize=auto;html=1;align=right;exitX=0.125;exitY=1.036;exitDx=0;exitDy=0;entryX=1;entryY=0.5;entryDx=0;entryDy=0;exitPerimeter=0;labelBackgroundColor=none;" parent="1" source="3-BPUUY52MVRkMOVyjyK-4" target="cX-9GvAJ7uHmKu8T5V0Z-3" edge="1">
          <mxGeometry x="-0.6675" relative="1" as="geometry">
            <Array as="points">
              <mxPoint x="439" y="-545" />
            </Array>
            <mxPoint as="offset" />
          </mxGeometry>
        </mxCell>
        <mxCell id="3-BPUUY52MVRkMOVyjyK-4" value="ページング管理" style="rounded=0;whiteSpace=wrap;html=1;" parent="1" vertex="1">
          <mxGeometry x="399" y="-640" width="320" height="30" as="geometry" />
        </mxCell>
        <mxCell id="3-BPUUY52MVRkMOVyjyK-6" value="初期化" style="endArrow=classic;html=1;align=left;verticalAlign=middle;labelBackgroundColor=none;" parent="1" source="cX-9GvAJ7uHmKu8T5V0Z-1" target="3-BPUUY52MVRkMOVyjyK-7" edge="1">
          <mxGeometry x="-0.3333" width="50" height="50" relative="1" as="geometry">
            <mxPoint x="649" y="-540" as="sourcePoint" />
            <mxPoint x="769.1199999999999" y="-554.9200000000001" as="targetPoint" />
            <mxPoint as="offset" />
          </mxGeometry>
        </mxCell>
        <mxCell id="3-BPUUY52MVRkMOVyjyK-7" value="(各サブモジュール)" style="text;html=1;strokeColor=none;fillColor=none;align=center;verticalAlign=middle;whiteSpace=wrap;rounded=0;" parent="1" vertex="1">
          <mxGeometry x="610" y="-600" width="109" height="14.5" as="geometry" />
        </mxCell>
        <mxCell id="tTIGoOZrCqbYwV9Eb-xu-19" value="&lt;span style=&quot;color: rgb(0, 0, 0); font-family: helvetica; font-size: 11px; font-style: normal; font-weight: 400; letter-spacing: normal; text-indent: 0px; text-transform: none; word-spacing: 0px; display: inline; float: none;&quot;&gt;仮想メモリ領域割当&lt;/span&gt;&lt;br style=&quot;color: rgb(0 , 0 , 0) ; font-family: &amp;quot;helvetica&amp;quot; ; font-size: 11px ; font-style: normal ; font-weight: 400 ; letter-spacing: normal ; text-indent: 0px ; text-transform: none ; word-spacing: 0px&quot;&gt;&lt;span style=&quot;color: rgb(0, 0, 0); font-family: helvetica; font-size: 11px; font-style: normal; font-weight: 400; letter-spacing: normal; text-indent: 0px; text-transform: none; word-spacing: 0px; display: inline; float: none;&quot;&gt;仮想メモリ領域解放&lt;/span&gt;" style="edgeStyle=orthogonalEdgeStyle;rounded=0;orthogonalLoop=1;jettySize=auto;html=1;entryX=0.25;entryY=0;entryDx=0;entryDy=0;align=right;labelBackgroundColor=none;" parent="1" source="tTIGoOZrCqbYwV9Eb-xu-18" target="cX-9GvAJ7uHmKu8T5V0Z-6" edge="1">
          <mxGeometry x="0.3333" relative="1" as="geometry">
            <Array as="points">
              <mxPoint x="237" y="-740" />
            </Array>
            <mxPoint as="offset" />
          </mxGeometry>
        </mxCell>
        <mxCell id="tTIGoOZrCqbYwV9Eb-xu-18" value="I/O制御" style="rounded=0;whiteSpace=wrap;html=1;fontStyle=0" parent="1" vertex="1">
          <mxGeometry x="99" y="-850" width="160" height="20" as="geometry" />
        </mxCell>
        <mxCell id="tTIGoOZrCqbYwV9Eb-xu-21" value="&lt;span style=&quot;color: rgb(0 , 0 , 0) ; font-family: &amp;quot;helvetica&amp;quot; ; font-size: 11px ; font-style: normal ; font-weight: 400 ; letter-spacing: normal ; text-align: right ; text-indent: 0px ; text-transform: none ; word-spacing: 0px&quot;&gt;ページディレクトリ割当&lt;/span&gt;&lt;br style=&quot;color: rgb(0 , 0 , 0) ; font-family: &amp;quot;helvetica&amp;quot; ; font-size: 11px ; font-style: normal ; font-weight: 400 ; letter-spacing: normal ; text-align: right ; text-indent: 0px ; text-transform: none ; word-spacing: 0px&quot;&gt;&lt;span style=&quot;color: rgb(0 , 0 , 0) ; font-family: &amp;quot;helvetica&amp;quot; ; font-size: 11px ; font-style: normal ; font-weight: 400 ; letter-spacing: normal ; text-align: right ; text-indent: 0px ; text-transform: none ; word-spacing: 0px&quot;&gt;ページディレクトリ解放&lt;/span&gt;&lt;br style=&quot;color: rgb(0 , 0 , 0) ; font-family: &amp;quot;helvetica&amp;quot; ; font-size: 11px ; font-style: normal ; font-weight: 400 ; letter-spacing: normal ; text-align: right ; text-indent: 0px ; text-transform: none ; word-spacing: 0px&quot;&gt;&lt;span style=&quot;color: rgb(0 , 0 , 0) ; font-family: &amp;quot;helvetica&amp;quot; ; font-size: 11px ; font-style: normal ; font-weight: 400 ; letter-spacing: normal ; text-align: right ; text-indent: 0px ; text-transform: none ; word-spacing: 0px&quot;&gt;ページディレクトリ切替&lt;/span&gt;" style="edgeStyle=orthogonalEdgeStyle;rounded=0;orthogonalLoop=1;jettySize=auto;html=1;align=right;entryX=0.124;entryY=-0.011;entryDx=0;entryDy=0;entryPerimeter=0;labelBackgroundColor=none;" parent="1" source="tTIGoOZrCqbYwV9Eb-xu-20" target="3-BPUUY52MVRkMOVyjyK-4" edge="1">
          <mxGeometry x="-0.3321" relative="1" as="geometry">
            <mxPoint x="439" y="-649" as="targetPoint" />
            <Array as="points">
              <mxPoint x="439" y="-650" />
            </Array>
            <mxPoint as="offset" />
          </mxGeometry>
        </mxCell>
        <mxCell id="tTIGoOZrCqbYwV9Eb-xu-20" value="タスク管理" style="rounded=0;whiteSpace=wrap;html=1;fontStyle=0" parent="1" vertex="1">
          <mxGeometry x="269" y="-850" width="190" height="20" as="geometry" />
        </mxCell>
        <mxCell id="dNzn62z3PuZ-VgO7Kbtw-2" value="GDTエントリ追加" style="edgeStyle=orthogonalEdgeStyle;rounded=0;orthogonalLoop=1;jettySize=auto;html=1;entryX=0.5;entryY=1;entryDx=0;entryDy=0;align=left;labelBackgroundColor=none;" parent="1" source="dNzn62z3PuZ-VgO7Kbtw-1" target="cX-9GvAJ7uHmKu8T5V0Z-9" edge="1">
          <mxGeometry x="-0.5" relative="1" as="geometry">
            <mxPoint as="offset" />
          </mxGeometry>
        </mxCell>
        <mxCell id="dNzn62z3PuZ-VgO7Kbtw-1" value="タスク管理" style="rounded=0;whiteSpace=wrap;html=1;" parent="1" vertex="1">
          <mxGeometry x="497" y="-490" width="80" height="20" as="geometry" />
        </mxCell>
      </root>
    </mxGraphModel>
  </diagram>
</mxfile>
